<svg width="32" height="24" viewBox="0 0 32 24" fill="none" xmlns="http://www.w3.org/2000/svg">
<path d="M31.6866 11.3756L25.2656 1.75266C25.0612 1.44444 24.7837 1.19159 24.4579 1.01664C24.132 0.841699 23.768 0.750095 23.3981 0.75H2.625C2.02826 0.75 1.45597 0.987053 1.03401 1.40901C0.612053 1.83097 0.375 2.40326 0.375 3V21C0.375 21.5967 0.612053 22.169 1.03401 22.591C1.45597 23.0129 2.02826 23.25 2.625 23.25H23.3981C23.7677 23.2493 24.1314 23.1576 24.4571 22.983C24.7828 22.8083 25.0605 22.5562 25.2656 22.2488L31.6823 12.6244C31.8063 12.4399 31.8729 12.2229 31.8736 12.0006C31.8744 11.7784 31.8093 11.5609 31.6866 11.3756ZM23.3981 21H2.625V3H23.3981L29.3972 12L23.3981 21Z" fill="#0FAEAE"/>
</svg>
