<svg width="24" height="24" viewBox="0 0 24 24" fill="none" xmlns="http://www.w3.org/2000/svg">
<path d="M20.7875 10.7334L7.28 2.47029C7.05227 2.33084 6.79144 2.25471 6.52445 2.24977C6.25746 2.24482 5.99399 2.31124 5.76125 2.44217C5.53073 2.57106 5.3387 2.75902 5.2049 2.98673C5.07111 3.21445 5.00039 3.47368 5 3.73779V20.2622C5.00174 20.6583 5.16072 21.0376 5.442 21.3166C5.72328 21.5956 6.10383 21.7515 6.5 21.75C6.77652 21.7499 7.04767 21.6736 7.28375 21.5297L20.7875 13.2665C21.0046 13.1342 21.184 12.9483 21.3084 12.7267C21.4329 12.5051 21.4983 12.2551 21.4983 12.0009C21.4983 11.7467 21.4329 11.4968 21.3084 11.2751C21.184 11.0535 21.0046 10.8676 20.7875 10.7353V10.7334ZM6.5 20.2444V3.74998L19.9841 12L6.5 20.2444Z" fill="#686868"/>
</svg>
