<svg width="24" height="24" viewBox="0 0 24 24" fill="none" xmlns="http://www.w3.org/2000/svg">
<path d="M20.0006 13.5004C19.9989 15.0912 19.3662 16.6163 18.2413 17.7411C17.1165 18.866 15.5914 19.4987 14.0006 19.5004H5.75059C5.55168 19.5004 5.36091 19.4214 5.22026 19.2807C5.07961 19.1401 5.00059 18.9493 5.00059 18.7504C5.00059 18.5515 5.07961 18.3607 5.22026 18.2201C5.36091 18.0794 5.55168 18.0004 5.75059 18.0004H14.0006C15.1941 18.0004 16.3387 17.5263 17.1826 16.6824C18.0265 15.8385 18.5006 14.6939 18.5006 13.5004C18.5006 12.3069 18.0265 11.1624 17.1826 10.3184C16.3387 9.47452 15.1941 9.00042 14.0006 9.00042H6.5609L9.78122 12.2198C9.92195 12.3605 10.001 12.5514 10.001 12.7504C10.001 12.9494 9.92195 13.1403 9.78122 13.281C9.64049 13.4218 9.44961 13.5008 9.25059 13.5008C9.05157 13.5008 8.8607 13.4218 8.71996 13.281L4.21996 8.78104C4.15023 8.71139 4.09491 8.62867 4.05717 8.53762C4.01943 8.44657 4 8.34898 4 8.25042C4 8.15185 4.01943 8.05426 4.05717 7.96321C4.09491 7.87216 4.15023 7.78945 4.21996 7.71979L8.71996 3.21979C8.8607 3.07906 9.05157 3 9.25059 3C9.44961 3 9.64048 3.07906 9.78121 3.21979C9.92195 3.36052 10.001 3.55139 10.001 3.75042C10.001 3.94944 9.92195 4.14031 9.78122 4.28104L6.5609 7.50042H14.0006C15.5914 7.50215 17.1165 8.13485 18.2413 9.2597C19.3662 10.3845 19.9989 11.9097 20.0006 13.5004Z" fill="#626D7D"/>
</svg>
