<svg viewBox="7.77 1.5 14.46 13" fill="none" xmlns="http://www.w3.org/2000/svg">
<path fill-rule="evenodd" clip-rule="evenodd" d="M21.9035 4.16498C21.897 4.23648 21.8905 4.30798 21.8905 4.38598V4.568C21.8905 4.8475 21.923 5.27 21.9945 5.842C22.066 6.414 22.0985 6.84298 22.0985 7.12898C22.1765 7.67498 22.2155 8.24699 22.2155 8.84499C22.2155 9.31299 22.183 9.74848 22.118 10.158C22.053 10.5675 21.9425 10.9445 21.7865 11.302C21.8385 11.12 21.871 10.9315 21.8905 10.7365C21.91 10.5415 21.9165 10.3335 21.9165 10.106C21.9165 9.81349 21.8645 9.16349 21.7605 8.15599C21.7085 7.65549 21.6825 7.25899 21.6825 6.97299C21.637 6.64149 21.585 6.115 21.52 5.3805C21.455 4.646 21.39 3.87248 21.3185 3.04698L21.6565 2.43598C21.689 2.55948 21.78 2.826 21.9295 3.242C22.131 3.814 22.2285 4.27549 22.2285 4.61999L21.9035 4.16498ZM17.0675 5.51699C17.0415 5.4715 16.9635 5.41299 16.827 5.32849C16.6905 5.24399 16.6385 5.15299 16.6645 5.04899L17.1455 4.48998L17.6915 4.932C17.568 5.114 17.477 5.24398 17.4185 5.32198C17.295 5.47798 17.178 5.54299 17.0675 5.51699ZM18.2505 2.64399L18.3025 2.53998C18.2505 2.55948 17.724 2.74799 16.7165 3.11199C15.5725 3.52149 14.695 3.84649 14.0905 4.08699C13.8825 4.16499 13.6745 4.24949 13.46 4.33399C13.2455 4.41849 13.1415 4.56799 13.1415 4.77599C13.525 4.57449 13.9475 4.38598 14.4155 4.20398C14.7795 4.06748 15.1955 3.91149 15.67 3.74249C16.1445 3.57349 16.5995 3.41099 17.0415 3.25499C17.5355 3.06649 17.932 2.84549 18.2245 2.60499L18.2505 2.64399ZM11.3995 2.20199C11.3995 2.12399 11.458 2.05899 11.5815 2.01349C11.705 1.96799 11.783 1.916 11.8155 1.864C11.679 1.8055 11.536 1.77299 11.3865 1.77299C11.276 1.77299 11.172 1.8055 11.0875 1.864C11.0615 1.8055 11.0745 1.74699 11.133 1.68849C11.1915 1.62999 11.263 1.57799 11.3605 1.52599C11.484 1.50649 11.5685 1.5 11.6205 1.5C11.783 1.5 11.952 1.53248 12.1145 1.60398C12.069 1.73398 11.978 1.8575 11.835 1.968C11.692 2.0785 11.549 2.15649 11.3995 2.20199ZM12.3485 3.29399C12.1925 3.22249 12.082 3.17049 12.0105 3.13799C11.874 3.06649 11.77 3.00149 11.6985 2.92999C11.6465 2.96249 11.5815 3.06648 11.5035 3.22898C11.4255 3.39148 11.341 3.47599 11.2435 3.47599C11.1915 3.47599 11.146 3.4695 11.1135 3.45C11.094 3.424 11.0095 3.38499 10.86 3.33949C10.7105 3.29399 10.639 3.2225 10.6585 3.125C10.7105 3.0405 10.7755 2.94299 10.8535 2.83249C10.9315 2.72199 11.0095 2.618 11.0875 2.514L11.7115 2.72198L12.2055 2.27999C12.329 2.32549 12.4395 2.37748 12.5435 2.43598C12.693 2.53998 12.797 2.6115 12.8685 2.657C12.836 2.6895 12.784 2.787 12.7125 2.943C12.6085 3.177 12.485 3.29399 12.3485 3.29399ZM15.6375 5.77699C15.592 5.78349 15.54 5.75749 15.4815 5.69249C15.423 5.62749 15.371 5.59499 15.3255 5.59499C15.3255 5.82899 15.306 6.05649 15.2605 6.28399C15.215 6.51149 15.1435 6.71299 15.0395 6.89499C14.981 6.79749 14.903 6.64799 14.8055 6.44649C14.708 6.24499 14.643 6.1085 14.5975 6.05C14.5715 6.1215 14.5195 6.15398 14.4415 6.15398L14.3375 6.128C14.292 6.0825 14.2725 6.03048 14.2725 5.97198C14.2725 5.92648 14.2855 5.86149 14.305 5.77699C14.3245 5.69249 14.3375 5.64049 14.3375 5.63399C14.3635 5.60149 14.3895 5.5625 14.4155 5.51699C14.461 5.4715 14.5 5.4715 14.5455 5.51699C14.6495 5.621 14.76 5.79649 14.8705 6.03699C14.981 6.27749 15.0655 6.44649 15.1175 6.53099C15.1435 6.26449 15.163 6.02399 15.1825 5.81599C15.202 5.60799 15.254 5.41949 15.3515 5.24399C15.397 5.26349 15.449 5.29599 15.5075 5.34799C15.566 5.39999 15.631 5.44549 15.6895 5.49099L15.6375 5.77699ZM19.2385 10.847C19.557 10.743 19.7715 10.509 19.8755 10.145C19.921 9.82649 19.9665 9.50149 20.0185 9.16999C20.0185 8.72799 19.9015 7.69449 19.6675 6.07599C19.5635 5.35449 19.5115 4.73048 19.5115 4.20398C19.5115 4.04798 19.531 3.96999 19.5635 3.96999C19.57 3.96999 19.635 4.0545 19.7585 4.217C19.856 4.3535 19.934 4.3925 19.9925 4.321C19.83 3.6645 19.5765 3.0275 19.2385 2.41C19.1865 2.5075 19.1345 2.59848 19.0825 2.68298C18.9785 2.85848 18.92 3.01449 18.9135 3.15099C19.011 3.78149 19.102 4.49 19.1865 5.2765C19.271 6.063 19.362 6.856 19.453 7.6555C19.544 8.455 19.6285 9.1635 19.7065 9.768C19.479 9.9175 19.245 10.028 19.0045 10.0995C18.764 10.171 18.517 10.21 18.2635 10.21C18.01 10.21 17.7825 10.171 17.5485 10.093C17.555 10.041 17.62 9.7875 17.7305 9.339C17.8085 9.027 17.8475 8.77348 17.8475 8.57198C17.8475 8.48748 17.8345 8.37698 17.8085 8.24698C17.7825 8.11698 17.75 8.0065 17.711 7.9155C17.672 7.8245 17.62 7.75299 17.5485 7.70099C17.477 7.64899 17.399 7.62299 17.3145 7.62299H17.256C17.256 7.62299 17.1975 7.62949 17.1715 7.64899C16.7815 7.93499 16.489 8.273 16.294 8.6695C16.099 9.066 16.0015 9.48849 16.0015 9.93699C15.0915 10.3465 14.1035 10.548 13.0375 10.548C12.524 10.548 12.0755 10.5025 11.6855 10.418C11.2955 10.3335 10.951 10.1515 10.652 9.87198C10.353 9.59248 10.171 9.2935 10.0995 8.975C10.08 9.0595 10.067 9.16349 10.0475 9.28699C10.028 9.41049 10.0215 9.51449 10.0215 9.59899C10.0215 9.98249 10.1125 10.2945 10.2945 10.535C10.652 10.8405 11.0355 11.055 11.4515 11.185C11.8675 11.315 12.329 11.38 12.8425 11.38C13.434 11.38 14.0775 11.2955 14.7795 11.12C15.2735 10.9965 15.865 10.8145 16.5605 10.574C16.996 10.8925 17.5225 11.055 18.1465 11.055C18.5105 11.055 18.8745 10.9835 19.2385 10.847ZM13.9215 9.26098C13.863 9.28698 13.8045 9.28048 13.746 9.24148C13.6875 9.20248 13.6615 9.15048 13.6615 9.07898C13.6615 8.87098 13.707 8.63699 13.8045 8.37699C13.85 8.26649 13.941 8.0455 14.0905 7.714C14.0905 7.8115 14.045 7.9675 13.9605 8.182C13.876 8.3965 13.8305 8.5525 13.8305 8.65C13.8305 8.7865 13.889 8.89049 13.9995 8.96199C14.0255 8.94249 14.0515 8.9035 14.071 8.832C14.0905 8.7605 14.1295 8.72148 14.1815 8.71498C14.1555 8.81898 14.123 8.923 14.0905 9.0335C14.058 9.144 13.9995 9.21548 13.9215 9.26098ZM17.2365 12.42C17.165 12.42 17.113 12.4005 17.0675 12.355C17.022 12.3095 16.983 12.251 16.9505 12.173C16.931 12.017 16.9505 11.8675 16.9895 11.7245C17.035 11.5815 17.1065 11.4125 17.2105 11.224C17.1845 11.3475 17.165 11.4385 17.1455 11.497C17.1 11.6335 17.0805 11.7375 17.0805 11.809C17.0805 11.9325 17.139 12.0235 17.2625 12.095C17.334 12.121 17.386 12.095 17.4185 12.017C17.451 11.939 17.49 11.9 17.5225 11.9C17.49 12.0885 17.451 12.2185 17.412 12.277C17.373 12.3355 17.3145 12.3875 17.2365 12.42ZM9.18946 3.346C9.15696 3.3395 9.10496 3.30699 9.04646 3.25499C8.98796 3.20299 8.93596 3.17699 8.90346 3.17699C8.87096 3.40449 8.83846 3.62548 8.81246 3.83998C8.76696 4.08048 8.70196 4.29499 8.61746 4.47699C8.56546 4.43149 8.48746 4.26249 8.38996 3.96999C8.29246 3.67749 8.12996 3.54749 7.91546 3.57999C7.85696 3.54749 7.82446 3.47598 7.82446 3.37198C7.82446 3.31998 7.83096 3.26148 7.85046 3.18998C7.88296 3.11848 7.91546 3.05999 7.94146 3.01449C7.96746 2.96899 7.99996 2.9365 8.04546 2.917C8.23396 3.021 8.38346 3.21599 8.48746 3.50199C8.53946 3.65149 8.59146 3.79449 8.64346 3.94399C8.66296 3.88549 8.68896 3.71 8.72146 3.4305C8.75396 3.151 8.83196 2.94949 8.94246 2.82599C9.06596 2.82599 9.16996 2.89749 9.26746 3.03399C9.28696 3.06649 9.28696 3.10549 9.26746 3.15099C9.25446 3.19649 9.22846 3.2615 9.18296 3.346H9.18946ZM11.8935 14.448C11.653 14.4805 11.38 14.5 11.0745 14.5C10.613 14.5 10.1905 14.448 9.79396 14.3505C9.39746 14.253 9.02696 14.0905 8.66946 13.863C8.27946 13.6095 8.01946 13.2455 7.88946 12.758C7.81146 12.4525 7.77246 11.978 7.77246 11.328C7.85696 10.9575 7.94796 10.6325 8.04546 10.366C8.14296 10.0995 8.27946 9.81348 8.45496 9.50798C8.63046 9.20248 8.82546 8.94248 9.03996 8.71498C9.25446 8.48748 9.51446 8.28598 9.82646 8.10398H9.28696C9.09846 8.10398 8.90996 8.10399 8.72146 8.09099H8.29896C8.16246 8.09099 8.02596 8.10399 7.87646 8.12999C7.96096 7.74649 8.13646 7.42149 8.39646 7.14199C8.48096 7.0445 9.05296 6.65448 10.1125 5.97198C10.548 5.68598 10.86 5.4 11.0615 5.114C11.133 5.062 11.289 4.86049 11.5425 4.51599C11.718 4.27549 11.8935 4.16499 12.0755 4.19099C12.121 4.30149 12.16 4.44449 12.2055 4.61999C12.251 4.79549 12.2705 4.945 12.2705 5.075C12.2705 5.3675 12.186 5.60149 12.0105 5.77699C11.9845 5.71849 11.9455 5.58849 11.887 5.38699C11.8285 5.18549 11.77 5.049 11.6985 4.971C11.3345 5.3805 10.938 5.78349 10.5025 6.17999C10.015 6.62199 9.56646 6.97298 9.15046 7.23298C9.48196 7.23298 9.81346 7.23299 10.158 7.23949C10.5025 7.23949 10.847 7.23949 11.1915 7.23949H11.4515C12.069 7.23949 12.6605 7.21349 13.2325 7.16149L12.8295 7.96749C12.2315 8.05199 11.757 8.13649 11.4125 8.21449C10.886 8.33799 10.418 8.4875 10.0085 8.6695C9.54046 8.897 9.15696 9.16349 8.85146 9.47549C8.50696 9.83949 8.27296 10.2685 8.16246 10.7625C8.13646 10.847 8.11696 10.9445 8.11046 11.0485C8.10396 11.1525 8.09746 11.263 8.09746 11.3865C8.09746 11.8545 8.20796 12.251 8.43546 12.5825C8.81896 12.9985 9.29346 13.2975 9.86546 13.4795C10.353 13.6355 10.925 13.7135 11.5945 13.7135C11.978 13.7135 12.42 13.6875 12.9335 13.6355C14.1295 13.512 14.838 13.4535 15.0655 13.4535C14.552 13.707 14.0385 13.915 13.525 14.084C13.0115 14.253 12.4655 14.37 11.8935 14.4415V14.448ZM10.0215 12.797C10.1255 12.8165 10.21 12.823 10.2685 12.823C10.7625 12.823 11.133 12.6475 11.3865 12.29C11.159 12.3875 10.977 12.4525 10.8405 12.4915C10.704 12.5305 10.5545 12.55 10.3985 12.55C10.301 12.55 10.236 12.55 10.1905 12.537C9.98246 12.4655 9.87846 12.394 9.87846 12.316C9.87846 12.264 9.94996 12.186 10.0995 12.082C10.379 11.8935 10.509 11.7375 10.4895 11.614C10.4375 11.536 10.3595 11.4905 10.262 11.4775C10.1645 11.4645 10.067 11.4515 9.98246 11.445C9.90446 11.4645 9.84596 11.5035 9.81346 11.562C9.78096 11.6205 9.75496 11.6985 9.73546 11.783L9.90446 11.718C9.95646 11.7245 10.015 11.7375 10.0735 11.7505C10.132 11.7635 10.171 11.7895 10.1905 11.835C10.0605 11.9065 9.94346 12.004 9.83946 12.134C9.73546 12.264 9.67696 12.4005 9.67046 12.537C9.70296 12.6085 9.75496 12.6605 9.81996 12.693C9.88496 12.7255 9.94996 12.7645 10.0215 12.797ZM17.4315 8.80599C17.464 8.89049 17.4835 8.97498 17.49 9.05948C17.4965 9.14398 17.503 9.248 17.5225 9.378C17.4445 9.456 17.321 9.52099 17.1585 9.57299C17.0805 9.59899 16.957 9.63798 16.7815 9.68998C16.71 9.66398 16.632 9.60548 16.5475 9.50798C16.502 9.46248 16.4435 9.39099 16.3655 9.28699C16.411 9.12449 16.489 8.9685 16.606 8.832C16.723 8.6955 16.8595 8.57849 17.0155 8.49399C17.1195 8.48749 17.204 8.5135 17.2755 8.585C17.3015 8.611 17.3535 8.68249 17.4315 8.80599Z" fill="black"></path>
</svg>