<svg viewBox="2 6.14 20 11.73" fill="none" xmlns="http://www.w3.org/2000/svg">
<path fill-rule="evenodd" clip-rule="evenodd" d="M18.0219 7.18502C18.0616 7.40851 17.9921 7.59226 17.8083 7.74622C17.7288 7.77105 17.6643 7.75616 17.6096 7.70649C17.555 7.65683 17.5202 7.59227 17.4954 7.52274C17.4855 7.4681 17.4855 7.3936 17.4855 7.29427C17.4855 7.11051 17.5103 6.93669 17.555 6.77776C17.6047 6.61387 17.6742 6.43011 17.7686 6.22152C17.7437 6.34072 17.7189 6.4748 17.6891 6.62876C17.6593 6.77776 17.6494 6.88703 17.6494 6.95159C17.6494 7.12542 17.6891 7.27937 17.7686 7.41843C17.8331 7.41843 17.8878 7.38863 17.9275 7.32904C17.9722 7.26944 18.002 7.22474 18.0169 7.18998L18.0219 7.18502ZM20.2965 7.96972C20.3511 7.91508 20.3809 7.85052 20.3809 7.78099C20.3809 7.60716 20.2965 7.483 20.1326 7.41347C20.1972 7.37374 20.227 7.29925 20.227 7.18502C20.227 7.12046 20.217 7.03105 20.2021 6.91185C20.1773 6.74299 20.0879 6.6238 19.929 6.55427C19.8197 6.58407 19.7204 6.64367 19.631 6.73307C19.5416 6.82246 19.477 6.92179 19.4274 7.04099C19.3876 7.10555 19.3678 7.16018 19.3678 7.20985C19.3678 7.30421 19.4423 7.40354 19.5962 7.50287C19.7452 7.6022 19.8346 7.66676 19.8594 7.70152C19.5714 8.07401 19.1741 8.46636 18.6675 8.86865C18.3894 9.09214 17.9821 9.40006 17.4408 9.79738C17.9424 9.54905 18.4043 9.26597 18.8215 8.93819C19.2833 8.5806 19.6757 8.19321 20.0035 7.77106L20.2766 8.01938L20.3015 7.96972H20.2965ZM15.5883 7.96972C15.5585 8.02435 15.5187 8.05415 15.479 8.05415C15.4542 8.05415 15.4194 8.03925 15.3698 8.00449C15.2655 7.93495 15.2009 7.89522 15.1661 7.89522C14.9377 8.25281 14.6397 8.58556 14.2722 8.89844C14.1679 8.98784 13.5719 9.40503 12.4842 10.1599C13.3335 9.39013 14.1877 8.62032 15.0469 7.84555C15.0221 7.78099 14.9327 7.69656 14.7738 7.59723C14.6149 7.49293 14.5553 7.38367 14.595 7.26447C14.6347 7.14527 14.7142 7.02609 14.8383 6.90193C14.9625 6.77776 15.0767 6.71817 15.1761 6.71817C15.2704 6.71817 15.3449 6.78769 15.4045 6.92178C15.4045 7.3191 15.4641 7.66676 15.5833 7.96972H15.5883ZM13.0256 6.41024C13.0554 6.38044 13.0752 6.34568 13.0752 6.31589C13.0752 6.22152 12.9858 6.17185 12.8021 6.17185C12.6581 6.24138 12.5587 6.41521 12.5041 6.6834C12.4495 6.95159 12.4048 7.11051 12.375 7.16018C12.2856 6.97145 12.1962 6.7728 12.1018 6.56421C12.0075 6.35562 11.8783 6.21655 11.7194 6.13708C11.6499 6.20165 11.6002 6.27614 11.5803 6.36554C11.5605 6.45494 11.5406 6.53936 11.5257 6.62876C11.5257 6.69829 11.5803 6.75789 11.6946 6.79762C11.7194 6.80755 11.7591 6.82246 11.8138 6.84729L11.8634 6.77776C11.9181 6.85723 12.0223 7.05092 12.1713 7.36381C12.2409 7.50783 12.3104 7.62207 12.375 7.71146C12.4296 7.55254 12.4842 7.38864 12.5438 7.22474C12.5687 7.13535 12.5786 7.03602 12.5786 6.92675C12.5389 6.76783 12.6034 6.6536 12.7673 6.58904C12.9362 6.51951 13.0206 6.46984 13.0305 6.43011L13.0256 6.41024ZM22 16.075L21.4984 16.8398C21.2103 16.6908 20.9272 16.5369 20.6392 16.3879C20.6094 16.4028 20.4852 16.5667 20.2717 16.8746C20.1823 17.0037 20.0978 17.0633 20.0084 17.0633C19.929 17.0633 19.8346 17.0137 19.7204 16.9094C19.6956 16.8696 19.6211 16.8249 19.487 16.7703C19.3578 16.7206 19.2883 16.661 19.2883 16.5965C19.2883 16.5568 19.3131 16.5021 19.3578 16.4276C19.4671 16.2588 19.5515 16.1396 19.6062 16.0601C19.7105 15.9111 19.8247 15.8515 19.9538 15.8813L20.6342 16.2389L21.2054 15.6678L21.9901 16.075H22ZM21.3544 10.2593C21.3146 10.3288 21.2451 10.3735 21.1458 10.3834C21.0464 10.3933 20.9769 10.4132 20.9372 10.4381C21.0713 10.7013 21.1756 10.9695 21.255 11.2426C21.3295 11.5158 21.3693 11.7989 21.3693 12.082C21.3693 12.365 21.3345 12.6084 21.2699 12.8269C21.2004 13.0455 21.0862 13.259 20.9173 13.4626C20.7882 13.6067 20.6144 13.7209 20.3909 13.8103C20.1674 13.8997 19.9588 13.9792 19.7601 14.0586C19.626 14.5652 19.3827 15.042 19.035 15.479C18.7172 15.8763 18.3149 16.2439 17.8331 16.5766C17.3861 16.8845 16.9143 17.1478 16.4127 17.3613C15.9111 17.5749 15.3946 17.7437 14.8632 17.8629C14.595 17.8629 14.3417 17.7934 14.1083 17.6543C13.8748 17.5153 13.6911 17.3216 13.5669 17.0782C13.5272 16.9491 13.4974 16.82 13.4825 16.6859C13.4676 16.5518 13.4577 16.4127 13.4577 16.2687C13.4577 15.9657 13.4974 15.6528 13.5769 15.335C13.6563 15.0122 13.7606 14.6794 13.8848 14.3417H13.9692C13.9195 14.5404 13.8798 14.739 13.845 14.9377C13.8103 15.1363 13.7904 15.3251 13.7904 15.5088C13.7904 15.7075 13.8152 15.8962 13.8699 16.07C13.9195 16.2439 14.0089 16.3978 14.1281 16.522C14.4212 16.7703 14.7887 16.8895 15.2257 16.8895C16.7604 16.5021 18.1361 15.6876 19.3479 14.446C19.3082 14.3169 19.2088 14.2573 19.0499 14.2573C18.742 14.3069 18.4291 14.3516 18.1212 14.4013C17.7636 14.3616 17.5252 14.3218 17.406 14.2821C17.1527 14.1927 16.9988 14.0338 16.9392 13.8053C16.9888 13.3434 17.0534 13.0008 17.1428 12.7673C17.2868 12.3998 17.5153 12.1416 17.8331 11.9826C17.9275 11.9677 18.002 11.9578 18.0616 11.9578C18.3546 11.9578 18.6377 12.0621 18.9059 12.2657C19.1443 12.4495 19.3529 12.6928 19.5366 12.9908C19.6161 13.0454 19.7154 13.0753 19.8346 13.0753C20.0035 13.0753 20.2021 13.0157 20.4405 12.8965C20.5895 12.8269 20.7882 12.7077 21.0266 12.5389C20.7882 11.784 20.5548 11.0291 20.3213 10.2742C20.3213 10.1152 20.3462 9.96625 20.3909 9.82222C20.4405 9.67819 20.52 9.53415 20.6392 9.39509C20.7584 9.46462 20.8875 9.61362 21.0315 9.83214C21.1756 10.0507 21.2799 10.1947 21.3544 10.2692V10.2593ZM13.9642 11.1433C13.9245 11.1532 13.8848 11.1979 13.85 11.2824C13.8152 11.3668 13.7557 11.3966 13.6762 11.3718C13.5818 11.2824 13.5322 11.1731 13.5322 11.039C13.5322 10.9595 13.5421 10.8751 13.5669 10.7807C13.5918 10.6913 13.6166 10.5821 13.6514 10.4629C13.5719 10.6119 13.5222 10.7162 13.4974 10.7708C13.4179 10.9546 13.3782 11.1334 13.3782 11.3072C13.3782 11.3966 13.3782 11.4661 13.3881 11.5207C13.3981 11.5754 13.4378 11.625 13.5123 11.6697C13.5868 11.7144 13.6613 11.7343 13.7308 11.7343C13.8202 11.6002 13.8798 11.4909 13.9096 11.4115C13.9394 11.332 13.9593 11.2426 13.9593 11.1383L13.9642 11.1433ZM9.93643 7.71146C9.88676 7.781 9.82717 7.89025 9.75764 8.03428C9.62851 8.28757 9.51925 8.45642 9.42488 8.53589C9.40005 8.51105 9.26595 8.42166 9.01763 8.26274C8.8438 8.15347 8.77427 8.03428 8.81401 7.90515C8.9332 7.69159 9.0226 7.53267 9.08716 7.42837C9.15173 7.32408 9.21629 7.27441 9.29079 7.27441C9.34542 7.27441 9.40502 7.3042 9.46958 7.35883C9.60368 7.4383 9.68811 7.48796 9.71791 7.51279C9.8073 7.56742 9.87683 7.63696 9.93146 7.71642L9.93643 7.71146ZM6.63372 6.28112C6.64862 6.33078 6.64366 6.38045 6.62379 6.44005C6.59896 6.49965 6.57412 6.55924 6.55426 6.62381C6.51453 6.59401 6.4748 6.56421 6.43506 6.54434C6.39533 6.52447 6.35063 6.52447 6.30594 6.53937C6.2364 6.6834 6.17681 6.92675 6.13707 7.26447C6.09734 7.60716 6.04271 7.85052 5.96821 7.98959C5.90365 7.92006 5.83412 7.74623 5.75466 7.47804C5.62553 7.05589 5.42687 6.86715 5.15868 6.90688C5.11895 6.86715 5.09908 6.81749 5.09908 6.75292C5.09908 6.71319 5.11895 6.64864 5.15371 6.56421C5.18848 6.47481 5.20834 6.42017 5.20834 6.39534L5.41197 6.21655C5.5411 6.34568 5.65036 6.52944 5.74472 6.77776C5.87882 7.13535 5.96325 7.34394 5.99305 7.4085C6.04271 7.08071 6.08244 6.84233 6.11224 6.6834C6.17681 6.38045 6.29104 6.23145 6.4599 6.23145C6.51453 6.23145 6.57412 6.24635 6.63869 6.28112H6.63372ZM15.8366 11.5952L15.5634 12.2757L15.6479 13.0157C15.5187 13.0951 15.3896 13.1348 15.2555 13.1348C15.186 13.1348 15.0916 13.12 14.9774 13.0951C14.8632 13.0653 14.7589 13.0405 14.6595 13.0157C14.4907 12.9908 14.4112 12.9263 14.4112 12.812C14.4112 12.7723 14.4311 12.6928 14.4659 12.5687C14.5006 12.4445 14.5106 12.3601 14.4957 12.3104C14.1381 12.7574 13.9096 13.0256 13.8053 13.12C13.4875 13.408 13.1646 13.5322 12.8418 13.5024C12.7226 13.5123 12.6084 13.4825 12.5041 13.4179C12.3948 13.3534 12.3005 13.264 12.2111 13.1448C12.1167 13.0753 12.067 12.9759 12.067 12.8468C12.067 12.822 12.077 12.7524 12.0968 12.6332C12.1167 12.514 12.1217 12.4246 12.1167 12.37C11.7095 12.7922 11.3916 13.0802 11.1631 13.2391C10.7807 13.5024 10.3933 13.6315 9.99603 13.6315C9.8371 13.6166 9.68811 13.5769 9.55401 13.5173C9.41992 13.4577 9.30569 13.3782 9.20636 13.2739C9.49938 13.0604 9.7328 12.7624 9.9116 12.38C10.0556 12.072 10.1599 11.7045 10.2195 11.2824C10.1897 10.9943 10.1103 10.746 9.99106 10.5374C9.87187 10.3288 9.703 10.1599 9.47951 10.0407C9.41495 10.0159 9.36032 10.006 9.31065 10.006C9.23119 10.006 9.14676 10.0209 9.06233 10.0556C9.03253 10.0656 8.95307 10.1003 8.83387 10.1649C8.60541 10.5324 8.42662 10.8701 8.30743 11.1781C8.15843 11.5654 8.07897 11.933 8.07897 12.2757C8.07897 12.4991 8.10877 12.7077 8.1634 12.9064C7.40849 13.1994 6.87211 13.3931 6.55426 13.4775C5.96821 13.6464 5.39707 13.7259 4.85076 13.7259C4.667 13.7259 4.47331 13.7159 4.26471 13.6911C3.8376 13.6365 3.45518 13.5073 3.12242 13.3087C2.74994 13.0852 2.49665 12.7922 2.35759 12.4246C2.34269 12.37 2.33275 12.2955 2.33275 12.1962C2.33275 12.0522 2.37249 11.8833 2.45195 11.6846C2.49168 11.5754 2.56121 11.4065 2.65557 11.183C2.90887 11.1284 3.09759 10.9347 3.21679 10.6119C3.28632 10.3487 3.36578 10.0854 3.44524 9.81227L3.17209 10.2046C3.11746 10.2444 3.06779 10.2642 3.02806 10.2642C2.9635 10.2642 2.9039 10.2394 2.84927 10.1947C2.79464 10.145 2.74001 10.0854 2.69531 10.0159C2.64564 9.83214 2.62578 9.65336 2.62578 9.47953C2.62578 9.09214 2.7549 8.63026 3.01813 8.09885C3.40055 7.31911 3.60417 6.89696 3.62404 6.83736C3.07773 7.76112 2.74001 8.35213 2.61088 8.61535C2.41222 9.0226 2.26819 9.39509 2.18376 9.73778C2.15893 9.85698 2.14403 9.94637 2.13409 10.0109C2.12416 10.0755 2.12416 10.1599 2.12416 10.2593C2.12416 10.4678 2.15396 10.6417 2.21356 10.7907C2.27316 10.9397 2.37249 11.0589 2.51651 11.1532C2.46188 11.2873 2.38242 11.486 2.27812 11.7442C2.17383 12.0025 2.09933 12.2111 2.04966 12.37C2.03973 12.4197 2.0298 12.4842 2.01987 12.5687C2.00993 12.6531 2 12.7326 2 12.812C2 13.0753 2.05463 13.3186 2.15893 13.552C2.26819 13.7805 2.43208 13.9692 2.65557 14.1132C2.9486 14.302 3.25652 14.441 3.57437 14.5255C3.89223 14.6099 4.22498 14.6496 4.5776 14.6496C4.76136 14.6496 4.93022 14.6397 5.08915 14.6248C5.24808 14.6099 5.41197 14.5851 5.57586 14.5553C5.98311 14.4857 6.47976 14.3516 7.06581 14.1629C7.44822 14.0338 7.91011 13.8699 8.44649 13.6613C8.65508 13.9394 8.83387 14.148 8.98287 14.2821C9.22126 14.4907 9.45965 14.59 9.69804 14.59C10.1053 14.59 10.4728 14.4957 10.8056 14.3119C11.1383 14.1232 11.4413 13.86 11.7095 13.5173L11.8535 13.9692C11.933 14.1182 12.0372 14.2374 12.1614 14.3218C12.2905 14.4063 12.4395 14.4609 12.6134 14.4808C12.9411 14.441 13.2093 14.3715 13.4229 14.2672C13.6911 14.1381 13.8997 13.9494 14.0437 13.6961C14.153 13.8252 14.3119 13.9195 14.5205 13.9841C14.5453 13.994 14.7291 14.0338 15.0668 14.1132C15.2257 14.0983 15.3648 14.0586 15.484 13.999C15.6032 13.9394 15.6975 13.8451 15.772 13.7209C15.9707 13.3732 16.07 12.9809 16.07 12.5538C16.07 12.1813 15.9906 11.8634 15.8316 11.6002L15.8366 11.5952ZM6.54929 8.20811C6.57412 8.25778 6.58406 8.2975 6.58406 8.33723C6.58406 8.41669 6.54929 8.49617 6.4748 8.5806C6.4003 8.66503 6.33573 8.73953 6.27117 8.81402C6.16191 8.89349 6.04768 8.95308 5.93842 8.99778C5.82915 9.04248 5.70499 9.06235 5.5709 9.06235C5.6007 9.03255 5.75962 8.93321 6.03775 8.77428C6.16687 8.70475 6.26124 8.62529 6.3258 8.54583C6.23144 8.51603 6.14204 8.48623 6.06258 8.46636C5.98311 8.4465 5.89372 8.43657 5.79935 8.43657C5.65533 8.43657 5.54606 8.47133 5.4666 8.54583C5.44177 8.49616 5.4517 8.4465 5.4964 8.3869C5.5411 8.3273 5.5858 8.26771 5.63546 8.20314C5.71492 8.15348 5.81425 8.1336 5.93345 8.1336C6.00298 8.1336 6.11224 8.14354 6.25627 8.16837C6.4003 8.1932 6.49963 8.20314 6.55426 8.20314L6.54929 8.20811ZM5.66526 11.3916C5.66526 11.6449 5.57586 11.8386 5.40204 11.9777C5.27291 11.9777 5.17358 11.928 5.10405 11.8237C5.07922 11.784 5.05935 11.7144 5.04445 11.6201C5.04445 11.4512 5.07425 11.2923 5.12888 11.1433C5.18351 10.9943 5.26794 10.8354 5.3772 10.6765C5.36727 10.7162 5.34244 10.8105 5.29774 10.9546C5.25304 11.1036 5.23318 11.2128 5.23318 11.2824C5.23318 11.4165 5.28781 11.5406 5.40204 11.6499C5.45667 11.6499 5.50137 11.6102 5.53116 11.5307C5.56096 11.4512 5.5858 11.4016 5.6007 11.3867H5.66029L5.66526 11.3916ZM19.9935 7.26944C19.9042 7.21978 19.8247 7.17011 19.7452 7.11548C19.7055 7.09065 19.6707 7.06581 19.636 7.04594C19.7552 7.12541 19.8744 7.19992 19.9935 7.27441V7.26944ZM15.1761 7.4383V7.26944C15.191 7.14031 15.1363 7.08071 15.0072 7.08071C14.9426 7.08071 14.893 7.11548 14.8532 7.18998C14.9476 7.30917 15.0569 7.3936 15.1761 7.4383ZM18.6675 13.3633C18.598 13.2838 18.5036 13.2143 18.3943 13.1497C18.2851 13.0852 18.1808 13.0206 18.0864 12.961C17.9772 12.9461 17.8778 12.9362 17.7984 12.9362C17.704 12.9362 17.6196 12.9511 17.55 12.9759C17.4805 13.0057 17.4209 13.0554 17.3712 13.1348C17.4755 13.2242 17.6047 13.2888 17.7636 13.3335C17.9225 13.3782 18.0814 13.3981 18.2404 13.3981C18.3844 13.3981 18.5284 13.3881 18.6675 13.3633ZM9.66824 12.1714C9.52421 12.2657 9.37522 12.3601 9.22126 12.4594C9.0673 12.5538 8.92824 12.6233 8.80904 12.663C8.71468 12.514 8.64515 12.3501 8.60541 12.1763C8.56568 12.0025 8.54582 11.8088 8.54582 11.6052C8.54582 11.5108 8.54582 11.4115 8.55575 11.3072C8.56568 11.2029 8.57562 11.1135 8.59051 11.034C8.66998 10.9794 8.74447 10.9496 8.81897 10.9496C8.9481 10.9496 9.07723 11.0142 9.21132 11.1383C9.30072 11.2277 9.39508 11.3419 9.49938 11.486C9.55401 11.6052 9.59374 11.7095 9.61361 11.7939C9.63347 11.8833 9.65334 12.0075 9.66824 12.1763V12.1714Z" fill="black"></path>
</svg>